# xmcd
#
# Track frame offsets: 
#        150
#        13412
#        24317
#        36042
#        40192
#        51575
#        59035
#        70477
#        77315
#        85667
#        89665
#        102350
#        107972
#        119495
#        127967
#        143107
#        148107
#        160605
#        167950
#
# Disc length: 2390 seconds
#
# Revision: 2
# Processed by: cddbd v1.5.2PL0 Copyright (c) Steve Scherf et al.
# Submitted via: ExactAudioCopy v0.99pb5
#
DISCID=0f095413
DTITLE=Various Artist - A Gaudi Frühschoppen
DYEAR=1994
DGENRE=Comedy
TTITLE0=Die Jungen Klostertaler - Hintermoser Kathi
TTITLE1=Toni Sponsel - Witze
TTITLE2=Orig. Grenzland Sextett - Mit Musik und Humor
TTITLE3=Hand Kutscherer - Witze
TTITLE4=Bay'risch Böhmische Musikanten - Auf und ab
TTITLE5=Oberland Duo - Witze
TTITLE6=Die 3 lustigen Holzknecht - Nudelwalger Polka
TTITLE7=Leo Walch - Witze
TTITLE8=Kaiserwälder Musketiere - Drei hol i o
TTITLE9=Kasimir - Witze
TTITLE10=5 Rosentaler - Jodler Lady
TTITLE11=Kasimir - Witze
TTITLE12=Seppl und seine Landknechte - Das Landsknechtleben
TTITLE13=Hans Kutscherer - Witze
TTITLE14=Pongys - Meine Omi ist modern
TTITLE15=Oberland Duo - Witze
TTITLE16=Die 5 Weststeirer - Franzi willst du
TTITLE17=Hans Kutscherer - Witze
TTITLE18=Orig. 4 Tiroler Buam - Schwarz-Weiss-Polka
EXTD=
EXTT0=
EXTT1=
EXTT2=
EXTT3=
EXTT4=
EXTT5=
EXTT6=
EXTT7=
EXTT8=
EXTT9=
EXTT10=
EXTT11=
EXTT12=
EXTT13=
EXTT14=
EXTT15=
EXTT16=
EXTT17=
EXTT18=
PLAYORDER=
